<svg width="327" height="130" viewBox="0 0 327 130" fill="none" xmlns="http://www.w3.org/2000/svg">
<path d="M74.0944 71.4563C69.9668 88.2694 53.1259 98.5202 36.478 94.351C19.8301 90.1791 9.68435 73.1684 13.8119 56.3553C17.9395 39.5395 34.7804 29.2888 51.4283 33.4606C51.4574 33.4687 51.4838 33.474 51.5129 33.482C68.1158 37.6913 78.2167 54.6753 74.0944 71.4563Z" fill="#F7931A"/>
<path d="M50.9973 59.3372C50.0269 63.258 44.1065 61.2495 42.1868 60.7688L43.8844 53.9073C45.7776 54.3774 51.9677 55.2801 50.9682 59.3372H50.9973ZM49.9396 70.4239C48.8925 74.6973 41.769 72.3843 39.458 71.8048L41.3301 64.2275C43.6411 64.8151 51.0343 65.9636 49.937 70.4239H49.9396ZM57.703 59.3959C58.3138 55.2187 55.1698 52.9752 50.91 51.4848L52.3062 45.8279L48.8608 44.9653L47.5017 50.4753C46.6079 50.2509 45.6877 50.0346 44.7755 49.8289L46.1346 44.2601L42.7289 43.3975L41.3328 49.0544L39.1592 48.5656L34.4525 47.3797L33.5509 51.0548C33.5509 51.0548 36.0734 51.6424 36.0258 51.6825C36.9883 51.8 37.6917 52.6654 37.6177 53.6429L36.0258 60.0823C36.1448 60.1091 36.2638 60.1491 36.3749 60.1999L36.0153 60.101L33.7915 69.1286C33.5826 69.7883 32.8845 70.1515 32.2288 69.9432C32.2288 69.9913 29.7432 69.3262 29.7432 69.3262L28.0536 73.247L32.4879 74.3554L34.9126 74.9938L33.5059 80.7094L36.9117 81.5721L38.3078 75.9152C39.2253 76.169 40.1296 76.404 41.0154 76.6203L39.6378 82.2959L43.0435 83.1479L44.4503 77.443C50.2728 78.5514 54.6304 78.108 56.4734 72.7957C57.9595 68.5223 56.3967 66.0624 53.3401 64.4545C55.5718 63.9364 57.2217 62.4941 57.6977 59.3959H57.703Z" fill="white"/>
<path d="M93.7434 85.4317C95.5574 85.437 97.3422 84.9696 98.9261 84.0775C100.555 83.1988 101.991 81.9916 103.138 80.528C104.333 78.9815 105.275 77.2508 105.923 75.4026C106.607 73.4902 106.954 71.4737 106.951 69.4439C107.06 67.382 106.623 65.3281 105.69 63.4932C104.854 62.0723 103.302 61.3458 101.052 61.3458C100.071 61.3805 99.0953 61.5141 98.1407 61.7464C96.9561 62.0135 95.8588 62.5878 94.9571 63.4131L89.8142 85.1352L90.6392 85.2928C90.8851 85.3542 91.1363 85.3943 91.3848 85.4103C91.7074 85.4504 92.03 85.4664 92.3552 85.4584L93.7434 85.429V85.4317ZM103.963 51.477C106.211 51.4236 108.44 51.8883 110.484 52.8311C112.258 53.6858 113.818 54.9357 115.045 56.4875C116.301 58.0927 117.224 59.9356 117.763 61.9067C118.35 64.0808 118.641 66.327 118.628 68.5812C118.625 75.5975 115.934 82.3361 111.116 87.3921C108.781 89.8119 106.002 91.7483 102.935 93.097C99.7193 94.526 96.2396 95.2551 92.7254 95.2337H90.2399C88.8887 95.1883 87.5402 95.0708 86.2022 94.8812C84.5681 94.6408 82.9472 94.315 81.3501 93.901C79.6737 93.5003 78.0475 92.9154 76.498 92.1569L90.1341 34.4609L102.313 32.5005L97.4612 52.978C98.4713 52.5159 99.521 52.1447 100.595 51.8696C101.702 51.5972 102.842 51.461 103.982 51.469L103.963 51.4796V51.477Z" fill="#4D4D4D"/>
<path d="M136.87 47.2702C135.284 47.2862 133.734 46.7707 132.465 45.8092C131.119 44.7328 130.39 43.0502 130.524 41.3195C130.519 40.2404 130.747 39.1721 131.193 38.1919C131.622 37.2357 132.222 36.373 132.97 35.6439C133.716 34.9281 134.581 34.3512 135.522 33.9372C136.503 33.5125 137.561 33.2962 138.626 33.2989C140.202 33.2935 141.736 33.8117 142.994 34.7678C144.338 35.8469 145.065 37.5268 144.935 39.2576C144.943 40.3393 144.718 41.4103 144.277 42.3932C143.849 43.344 143.251 44.204 142.511 44.9305C141.768 45.6489 140.903 46.2259 139.959 46.6372C138.978 47.0618 137.92 47.2755 136.855 47.2648H136.873L136.87 47.2702ZM131.212 94.1144H119.567L129.406 52.3555H141.12L131.212 94.1144Z" fill="#4D4D4D"/>
<path d="M151.31 41.9578L163.49 40.0562L160.462 52.3581H173.506L171.155 62.0427H158.22L154.766 76.6096C154.468 77.726 154.283 78.8691 154.214 80.0229C154.142 80.9551 154.28 81.8926 154.61 82.7659C154.936 83.5485 155.536 84.1815 156.3 84.5394C157.397 85.0281 158.595 85.2525 159.793 85.1857C161.023 85.1911 162.247 85.0682 163.453 84.8225C164.664 84.5821 165.859 84.2563 167.025 83.8423L167.898 92.8992C166.226 93.5055 164.518 94.0076 162.784 94.4002C160.642 94.8596 158.452 95.0733 156.263 95.0385C152.643 95.0385 149.848 94.4883 147.849 93.412C145.98 92.4505 144.48 90.8854 143.6 88.9623C142.738 86.9218 142.362 84.705 142.503 82.4935C142.632 79.8974 143 77.3174 143.6 74.7881L151.316 41.9231V41.9631L151.31 41.9578Z" fill="#4D4D4D"/>
<path d="M173.077 77.4432C173.053 73.9791 173.638 70.5364 174.804 67.2779C175.899 64.1984 177.58 61.3646 179.754 58.9368C181.943 56.5304 184.609 54.6127 187.575 53.3093C190.812 51.8991 194.307 51.194 197.832 51.242C199.961 51.2153 202.084 51.4424 204.16 51.9178C205.905 52.3344 207.602 52.9327 209.226 53.7019L205.18 62.887C204.133 62.457 203.044 62.0858 201.92 61.7412C200.577 61.3646 199.189 61.1883 197.795 61.2231C194.276 61.0949 190.891 62.5959 188.604 65.3015C186.333 67.9991 185.193 71.6261 185.188 76.1826C185.082 78.4929 185.685 80.7791 186.914 82.7315C188.064 84.3982 190.188 85.2288 193.282 85.2288C194.762 85.2288 196.24 85.0685 197.687 84.748C198.977 84.4703 200.241 84.0723 201.463 83.5622L202.327 93.0117C200.741 93.618 199.12 94.1361 197.475 94.5581C195.386 95.0335 193.25 95.2579 191.108 95.2258C188.265 95.3086 185.439 94.8252 182.781 93.8049C180.669 92.9449 178.767 91.6309 177.21 89.9536C175.732 88.327 174.64 86.3826 174.019 84.2673C173.36 82.0425 173.032 79.7295 173.048 77.4058L173.077 77.4459V77.4432Z" fill="#4D4D4D"/>
<path d="M230.536 61.2602C228.893 61.2362 227.288 61.765 225.974 62.7612C224.642 63.8029 223.523 65.0982 222.685 66.5752C221.762 68.1457 221.069 69.8443 220.628 71.6151C220.202 73.3138 219.98 75.0552 219.969 76.81C219.864 78.9493 220.295 81.078 221.223 83.0064C222.066 84.486 223.581 85.2312 225.784 85.2312C227.429 85.2606 229.036 84.7291 230.345 83.7222C231.68 82.6805 232.802 81.3852 233.645 79.9108C234.555 78.3377 235.232 76.6417 235.655 74.8709C236.078 73.1696 236.3 71.4228 236.313 69.6654C236.422 67.5287 235.991 65.3947 235.06 63.469C234.216 62 232.691 61.2549 230.499 61.2549L230.538 61.2655L230.536 61.2602ZM224.713 95.2336C222.241 95.2923 219.782 94.857 217.473 93.9596C215.532 93.185 213.798 91.9644 212.407 90.3913C211.04 88.8075 210.011 86.9539 209.379 84.9508C208.694 82.7046 208.364 80.3622 208.409 78.0118C208.417 74.7748 208.93 71.559 209.935 68.4849C210.908 65.3893 212.428 62.4995 214.417 59.9461C216.416 57.3955 218.901 55.2748 221.722 53.7123C224.761 52.0617 228.169 51.2284 231.622 51.2899C234.081 51.2445 236.525 51.6771 238.822 52.5639C240.766 53.3251 242.511 54.5296 243.918 56.0841C245.277 57.6732 246.303 59.5241 246.938 61.5246C247.628 63.7735 247.956 66.1185 247.908 68.4742C247.897 71.7086 247.398 74.9217 246.422 78.0012C245.465 81.0994 243.973 84.0026 242.017 86.5773C240.047 89.1387 237.572 91.2593 234.748 92.8031C231.662 94.4617 228.209 95.3004 224.713 95.2336Z" fill="#4D4D4D"/>
<path d="M266.296 47.2704C264.712 47.2864 263.165 46.7736 261.901 45.8094C260.553 44.733 259.826 43.0504 259.96 41.3197C259.955 40.2407 260.182 39.1723 260.629 38.1921C261.044 37.2413 261.631 36.3786 262.356 35.6441C263.107 34.931 263.972 34.3541 264.918 33.9374C265.897 33.5127 266.949 33.2964 268.015 33.2991C269.601 33.2857 271.153 33.8039 272.42 34.7681C273.763 35.8471 274.49 37.5271 274.361 39.2578C274.361 40.3421 274.131 41.4105 273.681 42.3934C273.261 43.3442 272.663 44.2069 271.925 44.9307C271.182 45.6492 270.318 46.2261 269.374 46.6374C268.401 47.0594 267.354 47.273 266.296 47.265V47.2704ZM260.648 94.1147H249.003L258.823 52.3557H270.545L260.645 94.1147H260.648Z" fill="#4D4D4D"/>
<path d="M278.932 54.2598C279.816 54.0061 280.797 53.6909 281.844 53.3491C282.891 53.0072 284.115 52.692 285.464 52.3689C286.942 52.051 288.436 51.8133 289.938 51.6531C291.804 51.4528 293.679 51.3593 295.556 51.37C301.691 51.37 305.919 53.1701 308.249 56.7704C309.642 58.9285 310.348 61.5593 310.367 64.6655V64.8899C310.356 66.909 310.057 69.1285 309.473 71.543L304.126 94.0878H292.442L297.632 72.0131C297.942 70.6429 298.195 69.3075 298.38 68.0041C298.581 66.8743 298.581 65.7205 298.38 64.5934C298.187 63.6506 297.672 62.8093 296.926 62.211C295.89 61.5246 294.657 61.2041 293.423 61.3002C291.868 61.3029 290.316 61.4632 288.793 61.781L281.164 94.1278H269.411L278.932 54.2625V54.2598Z" fill="#4D4D4D"/>
</svg>
