<svg width="334" height="134" viewBox="0 0 334 134" fill="none" xmlns="http://www.w3.org/2000/svg">
<path d="M98.31 71.0073C98.31 71.5659 97.839 72.0382 97.2512 72.0382H77.7715C78.2699 76.8719 81.886 81.2918 86.9975 81.2918C90.4933 81.2918 93.0782 79.9645 95.0169 77.1649C95.2232 76.8719 95.5153 76.665 95.8694 76.665C96.4263 76.665 96.8387 77.0787 96.8387 77.6373C96.8387 77.8441 96.7803 77.9924 96.6909 78.1372C94.7213 81.5538 90.8164 83.2363 86.994 83.2363C80.4423 83.2363 75.7399 77.3442 75.7399 71.0659C75.7399 64.7877 80.4114 58.8956 86.994 58.8956C93.5766 58.8956 98.2756 64.7291 98.3065 71.0073H98.31ZM96.2234 70.0937C95.811 65.26 92.1089 60.8401 86.9975 60.8401C81.886 60.8401 78.2733 65.26 77.7715 70.0937H96.2234ZM121.959 59.3679C122.516 59.3679 122.929 59.8678 122.929 60.3402C122.929 60.8987 122.516 61.3124 121.959 61.3124H116.731V81.909C116.731 82.4089 116.319 82.8812 115.762 82.8812C115.205 82.8812 114.792 82.3813 114.792 81.909V61.3124H109.767C109.21 61.3124 108.797 60.8987 108.797 60.3402C108.797 59.8402 109.21 59.3679 109.767 59.3679H114.792V51.8554C114.792 51.3555 115.174 50.8831 115.672 50.8245C116.288 50.7659 116.759 51.2072 116.759 51.7968V59.3714H121.959V59.3679ZM153.865 69.3283V81.7917C153.865 82.3503 153.367 82.764 152.896 82.764C152.339 82.764 151.927 82.3503 151.927 81.7917V69.3283C151.927 65.1152 149.548 60.9297 144.876 60.9297C138.882 60.9297 136.297 66.1737 136.651 71.5659C136.651 71.7141 136.709 72.3312 136.709 72.4209V81.7607C136.709 82.2606 136.328 82.733 135.829 82.7916C135.214 82.8502 134.743 82.4089 134.743 81.8193V40.8331C134.743 40.3332 135.156 39.8608 135.712 39.8608C136.269 39.8608 136.682 40.3608 136.682 40.8331V63.9947C138.356 60.9883 141.353 58.9542 144.849 58.9542C150.607 58.9542 153.869 63.9947 153.869 69.3283H153.865ZM188.855 71.0073C188.855 71.5659 188.384 72.0382 187.796 72.0382H168.316C168.815 76.8719 172.431 81.2918 177.542 81.2918C181.038 81.2918 183.623 79.9645 185.562 77.1649C185.768 76.8719 186.06 76.665 186.414 76.665C186.971 76.665 187.383 77.0787 187.383 77.6373C187.383 77.8441 187.325 77.9924 187.236 78.1372C185.266 81.5538 181.361 83.2363 177.539 83.2363C170.987 83.2363 166.285 77.3442 166.285 71.0659C166.285 64.7877 170.956 58.8956 177.539 58.8956C184.121 58.8956 188.793 64.7291 188.851 71.0073H188.855ZM186.741 70.0937C186.328 65.26 182.626 60.8401 177.515 60.8401C172.403 60.8401 168.791 65.26 168.289 70.0937H186.741ZM212.772 60.2815C212.772 60.8987 212.418 61.2538 211.861 61.3434C206.131 62.1985 203.546 66.8839 203.546 72.3347V81.6745C203.546 82.1744 203.165 82.6468 202.666 82.7054C202.051 82.764 201.58 82.3227 201.58 81.7331V60.4298C201.58 59.9299 201.962 59.4576 202.46 59.3989C203.075 59.3403 203.546 59.7816 203.546 60.3712V64.7015C205.162 61.9606 208.365 59.3679 211.713 59.3679C212.212 59.3679 212.772 59.723 212.772 60.2815ZM244.826 71.0073C244.826 71.5659 244.355 72.0382 243.767 72.0382H224.287C224.786 76.8719 228.402 81.2918 233.513 81.2918C237.009 81.2918 239.594 79.9645 241.533 77.1649C241.739 76.8719 242.031 76.665 242.385 76.665C242.942 76.665 243.355 77.0787 243.355 77.6373C243.355 77.8441 243.296 77.9924 243.207 78.1372C241.237 81.5538 237.332 83.2363 233.51 83.2363C226.958 83.2363 222.256 77.3442 222.256 71.0659C222.256 64.7877 226.927 58.8956 233.51 58.8956C240.093 58.8956 244.792 64.7291 244.823 71.0073H244.826ZM242.739 70.0937C242.327 65.26 238.625 60.8401 233.513 60.8401C228.402 60.8401 224.789 65.26 224.287 70.0937H242.739ZM276.319 60.516V81.909C276.319 82.4675 275.821 82.8812 275.35 82.8812C274.793 82.8812 274.381 82.4675 274.381 81.909V77.8441C272.765 81.0574 269.916 83.3846 266.272 83.3846C260.483 83.3846 257.283 78.344 257.283 73.0104V60.4884C257.283 59.9885 257.696 59.5162 258.252 59.5162C258.809 59.5162 259.222 60.0161 259.222 60.4884V73.0104C259.222 77.2235 261.601 81.409 266.272 81.409C272.824 81.409 274.381 75.2514 274.381 68.4422V60.4574C274.381 59.8678 274.996 59.2783 275.704 59.5437C276.058 59.7196 276.319 60.1023 276.319 60.516ZM325.646 69.2387V81.7607C325.646 82.3192 325.148 82.733 324.677 82.733C324.12 82.733 323.708 82.3192 323.708 81.7607V69.2387C323.708 65.0256 321.329 60.8987 316.657 60.8987C310.783 60.8987 308.549 67.2045 308.549 72.0968V81.7607C308.549 82.3192 308.05 82.733 307.579 82.733C307.022 82.733 306.61 82.3192 306.61 81.7607V69.2387C306.61 65.0256 304.231 60.8987 299.56 60.8987C293.627 60.8987 291.186 65.5841 291.393 71.8313C291.393 71.9796 291.451 72.2451 291.393 72.3312V81.7297C291.393 82.2296 291.011 82.7019 290.513 82.7605C289.897 82.8191 289.426 82.3778 289.426 81.7883V60.4229C289.426 59.923 289.808 59.4507 290.306 59.392C290.922 59.3334 291.393 59.7747 291.393 60.3643V63.9292C293.067 60.9228 296.064 58.9507 299.56 58.9507C303.527 58.9507 306.61 61.4848 307.875 65.1669C309.49 61.5124 312.636 58.9507 316.661 58.9507C322.391 58.9507 325.65 63.9292 325.65 69.2352L325.646 69.2387Z" fill="#939393"/>
<path opacity="0.6" d="M32.7348 80.1986L57.1507 65.7286L32.7348 54.6201L8.34984 65.732L32.7348 80.202V80.1986Z" fill="#8C8C8C"/>
<path opacity="0.45" d="M32.7349 54.6235V25.125L8.34995 65.732L32.7349 80.202V54.6235Z" fill="#8C8C8C"/>
<path opacity="0.8" d="M32.7346 80.1985L57.1505 65.7285L32.7346 25.125V80.1985Z" fill="#8C8C8C"/>
<path opacity="0.45" d="M32.7348 84.8252L8.34984 70.3862L32.7348 104.863V84.8252Z" fill="#8C8C8C"/>
<path opacity="0.8" d="M57.1505 70.3862L32.7346 84.8252V104.863L57.1505 70.3862Z" fill="#8C8C8C"/>
</svg>
