<svg width="1987" height="203" viewBox="0 0 1987 203" fill="none" xmlns="http://www.w3.org/2000/svg">
<g filter="url(#filter0_b_42_91)">
<path d="M5 159.5L497 59.5L726 174L863.5 96.5L972 142.5L1155.5 59.5L1315.5 174L1659 28L1976.5 159.5" stroke="#202020" stroke-opacity="0.1" stroke-width="50"/>
</g>
<path d="M5 159.5L497 59.5L726 174L863.5 96.5L972 142.5L1155.5 59.5L1315.5 174L1659 28L1976.5 159.5" stroke="url(#paint0_linear_42_91)" stroke-opacity="0.1" stroke-width="3"/>
<path d="M5 150.5L497 50.5L726 165L863.5 87.5L972 133.5L1155.5 50.5L1315.5 165L1659 19L1976.5 150.5" stroke="url(#paint1_linear_42_91)" stroke-opacity="0.1" stroke-width="3"/>
<path d="M5 141.5L497 41.5L726 156L863.5 78.5L972 124.5L1155.5 41.5L1315.5 156L1659 10L1976.5 141.5" stroke="url(#paint2_linear_42_91)" stroke-opacity="0.1" stroke-width="3"/>
<path d="M5 167.5L497 67.5L726 182L863.5 104.5L972 150.5L1155.5 67.5L1315.5 182L1659 36L1976.5 167.5" stroke="url(#paint3_linear_42_91)" stroke-opacity="0.1" stroke-width="3"/>
<path d="M5 175.5L497 75.5L726 190L863.5 112.5L972 158.5L1155.5 75.5L1315.5 190L1659 44L1976.5 175.5" stroke="url(#paint4_linear_42_91)" stroke-opacity="0.1" stroke-width="3"/>
<defs>
<filter id="filter0_b_42_91" x="-239.979" y="-239.111" width="2466.05" height="681.609" filterUnits="userSpaceOnUse" color-interpolation-filters="sRGB">
<feFlood flood-opacity="0" result="BackgroundImageFix"/>
<feGaussianBlur in="BackgroundImageFix" stdDeviation="120"/>
<feComposite in2="SourceAlpha" operator="in" result="effect1_backgroundBlur_42_91"/>
<feBlend mode="normal" in="SourceGraphic" in2="effect1_backgroundBlur_42_91" result="shape"/>
</filter>
<linearGradient id="paint0_linear_42_91" x1="5" y1="101" x2="1976.5" y2="101" gradientUnits="userSpaceOnUse">
<stop stop-color="white" stop-opacity="0"/>
<stop offset="0.140528" stop-color="white"/>
<stop offset="0.984155" stop-color="white" stop-opacity="0"/>
</linearGradient>
<linearGradient id="paint1_linear_42_91" x1="5" y1="92" x2="1976.5" y2="92" gradientUnits="userSpaceOnUse">
<stop stop-color="white" stop-opacity="0"/>
<stop offset="0.140528" stop-color="white"/>
<stop offset="0.984155" stop-color="white" stop-opacity="0"/>
</linearGradient>
<linearGradient id="paint2_linear_42_91" x1="5" y1="83" x2="1976.5" y2="83" gradientUnits="userSpaceOnUse">
<stop stop-color="white" stop-opacity="0"/>
<stop offset="0.140528" stop-color="white"/>
<stop offset="0.984155" stop-color="white" stop-opacity="0"/>
</linearGradient>
<linearGradient id="paint3_linear_42_91" x1="5" y1="109" x2="1976.5" y2="109" gradientUnits="userSpaceOnUse">
<stop stop-color="white" stop-opacity="0"/>
<stop offset="0.140528" stop-color="white"/>
<stop offset="0.984155" stop-color="white" stop-opacity="0"/>
</linearGradient>
<linearGradient id="paint4_linear_42_91" x1="5" y1="117" x2="1976.5" y2="117" gradientUnits="userSpaceOnUse">
<stop stop-color="white" stop-opacity="0"/>
<stop offset="0.140528" stop-color="white"/>
<stop offset="0.984155" stop-color="white" stop-opacity="0"/>
</linearGradient>
</defs>
</svg>
