<svg width="335" height="134" viewBox="0 0 335 134" fill="none" xmlns="http://www.w3.org/2000/svg">
<path d="M292.154 67.7164C290.469 66.6028 288.593 65.7964 286.832 64.7979C285.683 64.1451 284.458 63.5883 283.482 62.7627C281.797 61.361 282.142 58.6346 283.903 57.4441C286.449 55.7545 290.641 56.6953 291.082 60.1514C291.082 60.2282 291.158 60.2666 291.235 60.2666H295.063C295.159 60.2666 295.236 60.1898 295.217 60.0938C295.025 57.713 294.087 55.7161 292.403 54.4489C290.775 53.2392 288.938 52.5864 286.985 52.5864C276.858 52.5864 275.939 63.3003 281.395 66.6988C282.008 67.102 287.368 69.7901 289.263 70.9613C291.158 72.1325 291.752 74.2638 290.929 75.9534C290.182 77.4894 288.249 78.5647 286.296 78.4495C284.19 78.3343 282.544 77.1822 281.97 75.3966C281.874 75.0702 281.816 74.4558 281.816 74.187C281.816 74.1102 281.74 74.0334 281.663 74.0334H277.509C277.509 74.0334 277.356 74.1102 277.356 74.187C277.356 77.2014 278.103 78.8719 280.151 80.3887C282.065 81.8287 284.152 82.424 286.315 82.424C291.981 82.424 294.91 79.2175 295.523 75.8766C296.04 72.6125 295.083 69.6748 292.173 67.7356L292.154 67.7164Z" fill="#949494"/>
<path d="M111.824 53.1426H107.977C107.977 53.1426 107.843 53.2002 107.823 53.2386L104.416 64.4901C104.359 64.6437 104.167 64.6437 104.11 64.4901L100.702 53.2386C100.702 53.2386 100.626 53.1426 100.549 53.1426H94.2127C94.2127 53.1426 94.0596 53.2194 94.0596 53.2962V82.0009C94.0596 82.0009 94.1361 82.1545 94.2127 82.1545H98.3668C98.3668 82.1545 98.5199 82.0777 98.5199 82.0009V60.1892C98.5199 60.0163 98.7688 59.9971 98.8262 60.1315L102.253 71.4598L102.502 72.247C102.502 72.247 102.578 72.343 102.655 72.343H105.833C105.833 72.343 105.947 72.2854 105.986 72.247L106.235 71.4598L109.661 60.1315C109.719 59.9587 109.968 60.0163 109.968 60.1892V82.0009C109.968 82.0009 110.044 82.1545 110.121 82.1545H114.275C114.275 82.1545 114.428 82.0777 114.428 82.0009V53.2962C114.428 53.2962 114.351 53.1426 114.275 53.1426H111.844H111.824Z" fill="#949494"/>
<path d="M228.56 53.1426C228.56 53.1426 228.426 53.2002 228.407 53.2386L224.999 64.4901C224.942 64.6437 224.751 64.6437 224.693 64.4901L221.286 53.2386C221.286 53.2386 221.209 53.1426 221.132 53.1426H214.815C214.815 53.1426 214.662 53.2194 214.662 53.2962V82.0009C214.662 82.0009 214.739 82.1545 214.815 82.1545H218.969C218.969 82.1545 219.122 82.0777 219.122 82.0009V60.1892C219.122 60.0163 219.371 59.9971 219.429 60.1315L222.855 71.4598L223.104 72.247C223.104 72.247 223.181 72.343 223.257 72.343H226.435C226.435 72.343 226.569 72.2854 226.588 72.247L226.837 71.4598L230.264 60.1315C230.321 59.9587 230.57 60.0163 230.57 60.1892V82.0009C230.57 82.0009 230.647 82.1545 230.723 82.1545H234.877C234.877 82.1545 235.03 82.0777 235.03 82.0009V53.2962C235.03 53.2962 234.954 53.1426 234.877 53.1426H228.56Z" fill="#949494"/>
<path d="M174.997 53.1426H155.375C155.375 53.1426 155.222 53.2194 155.222 53.2962V56.8867C155.222 56.8867 155.299 57.0403 155.375 57.0403H162.956V82.0201C162.956 82.0201 163.033 82.1737 163.109 82.1737H167.263C167.263 82.1737 167.416 82.0969 167.416 82.0201V57.0403H174.997C174.997 57.0403 175.15 56.9635 175.15 56.8867V53.2962C175.15 53.2962 175.093 53.1426 174.997 53.1426Z" fill="#949494"/>
<path d="M199.5 82.1558H203.271C203.367 82.1558 203.443 82.0598 203.424 81.9638L195.614 53.1439C195.614 53.1439 195.537 53.0479 195.461 53.0479H190.043C190.043 53.0479 189.909 53.1055 189.89 53.1439L182.08 81.9638C182.06 82.0598 182.137 82.1558 182.233 82.1558H186.004C186.004 82.1558 186.119 82.0982 186.157 82.0598L188.416 73.6692C188.416 73.6692 188.493 73.5732 188.569 73.5732H196.935C196.935 73.5732 197.069 73.6308 197.088 73.6692L199.347 82.0598C199.347 82.0598 199.442 82.1558 199.5 82.1558ZM189.584 69.4643L192.608 58.2512C192.666 58.0976 192.857 58.0976 192.915 58.2512L195.939 69.4643C195.958 69.5603 195.882 69.6563 195.786 69.6563H189.718C189.622 69.6563 189.545 69.5603 189.565 69.4643H189.584Z" fill="#949494"/>
<path d="M263.955 82.1558H267.727C267.822 82.1558 267.899 82.0598 267.88 81.9638L260.069 53.1439C260.069 53.1439 259.993 53.0479 259.916 53.0479H254.499C254.499 53.0479 254.365 53.1055 254.346 53.1439L246.535 81.9638C246.516 82.0598 246.593 82.1558 246.688 82.1558H250.46C250.46 82.1558 250.594 82.0982 250.613 82.0598L252.872 73.6692C252.872 73.6692 252.948 73.5732 253.025 73.5732H261.39C261.39 73.5732 261.524 73.6308 261.543 73.6692L263.802 82.0598C263.802 82.0598 263.879 82.1558 263.955 82.1558ZM254.039 69.4643L257.083 58.2512C257.14 58.0976 257.332 58.0976 257.389 58.2512L260.433 69.4643C260.452 69.5603 260.376 69.6563 260.28 69.6563H254.212C254.116 69.6563 254.039 69.5603 254.058 69.4643H254.039Z" fill="#949494"/>
<path d="M131.274 77.8926V68.9836C131.274 68.9836 131.351 68.83 131.427 68.83H142.492C142.492 68.83 142.645 68.7532 142.645 68.6764V65.0859C142.645 65.0859 142.569 64.9323 142.492 64.9323H131.427C131.427 64.9323 131.274 64.8555 131.274 64.7787V57.1753C131.274 57.1753 131.351 57.0217 131.427 57.0217H144.004C144.004 57.0217 144.158 56.9449 144.158 56.8681V53.2776C144.158 53.2776 144.081 53.124 144.004 53.124H126.967C126.967 53.124 126.814 53.2008 126.814 53.2776V81.9631C126.814 81.9631 126.89 82.1167 126.967 82.1167H144.521C144.521 82.1167 144.674 82.0399 144.674 81.9631V78.1806C144.674 78.1806 144.598 78.027 144.521 78.027H131.389C131.389 78.027 131.274 77.9502 131.274 77.8542V77.8926Z" fill="#949494"/>
<path d="M330.114 81.9052L315.738 67.044C315.738 67.044 315.68 66.8904 315.738 66.852L328.678 53.4117C328.774 53.3157 328.698 53.1621 328.583 53.1621H323.28C323.28 53.1621 323.203 53.1813 323.184 53.2197L312.215 64.6056C312.12 64.7016 311.966 64.6248 311.966 64.5096V53.3157C311.966 53.3157 311.89 53.1621 311.813 53.1621H307.659C307.659 53.1621 307.506 53.2389 307.506 53.3157V82.0204C307.506 82.0204 307.583 82.174 307.659 82.174H311.813C311.813 82.174 311.966 82.0972 311.966 82.0204V69.3865C311.966 69.2713 312.139 69.1945 312.215 69.2905L324.639 82.1356C324.639 82.1356 324.716 82.1932 324.735 82.1932H330.038C330.133 82.174 330.21 82.0012 330.114 81.9244V81.9052Z" fill="#949494"/>
<path d="M65.6893 37.687L40.5543 56.3499L45.2252 45.348L65.6893 37.687Z" fill="#E17726" stroke="#E17726" stroke-width="0.581081" stroke-linecap="round" stroke-linejoin="round"/>
<path d="M7.70508 37.687L32.6295 56.5227L28.1691 45.348L7.70508 37.687Z" fill="#E27625" stroke="#E27625" stroke-width="0.581081" stroke-linecap="round" stroke-linejoin="round"/>
<path d="M56.6351 80.9648L49.9541 91.2179L64.2732 95.1732L68.3698 81.1953L56.6351 80.9648Z" fill="#E27625" stroke="#E27625" stroke-width="0.581081" stroke-linecap="round" stroke-linejoin="round"/>
<path d="M5.04419 81.1953L9.12168 95.1732L23.4216 91.2179L16.7598 80.9648L5.04419 81.1953Z" fill="#E27625" stroke="#E27625" stroke-width="0.581081" stroke-linecap="round" stroke-linejoin="round"/>
<path d="M22.6559 63.6459L18.6741 69.6749L32.8401 70.3277L32.3615 55.0249L22.6368 63.6651L22.6559 63.6459Z" fill="#E27625" stroke="#E27625" stroke-width="0.581081" stroke-linecap="round" stroke-linejoin="round"/>
<path d="M50.7576 63.6455L40.8798 54.8325L40.5543 70.3081L54.7203 69.6553L50.7385 63.6263L50.7576 63.6455Z" fill="#E27625" stroke="#E27625" stroke-width="0.581081" stroke-linecap="round" stroke-linejoin="round"/>
<path d="M23.4215 91.2177L31.9976 87.0704L24.6084 81.291L23.4215 91.2177Z" fill="#E27625" stroke="#E27625" stroke-width="0.581081" stroke-linecap="round" stroke-linejoin="round"/>
<path d="M41.3969 87.0518L49.9538 91.1991L48.7861 81.2725L41.3969 87.0518Z" fill="#E27625" stroke="#E27625" stroke-width="0.581081" stroke-linecap="round" stroke-linejoin="round"/>
<path d="M49.9538 91.2176L41.3969 87.0703L42.086 92.6384L42.0094 95.0001L49.9347 91.2176H49.9538Z" fill="#D5BFB2" stroke="#D5BFB2" stroke-width="0.581081" stroke-linecap="round" stroke-linejoin="round"/>
<path d="M23.4215 91.2176L31.3851 95.0001L31.3276 92.6384L31.9976 87.0703L23.4215 91.2176Z" fill="#D5BFB2" stroke="#D5BFB2" stroke-width="0.581081" stroke-linecap="round" stroke-linejoin="round"/>
<path d="M31.5192 77.6046L24.3979 75.5117L29.4135 73.1885L31.5001 77.5854L31.5192 77.6046Z" fill="#233447" stroke="#233447" stroke-width="0.581081" stroke-linecap="round" stroke-linejoin="round"/>
<path d="M41.8759 77.6054L43.9625 73.2085L49.0163 75.5318L41.8759 77.6246V77.6054Z" fill="#233447" stroke="#233447" stroke-width="0.581081" stroke-linecap="round" stroke-linejoin="round"/>
<path d="M23.4213 91.2179L24.6656 80.9648L16.7595 81.1953L23.4213 91.2179Z" fill="#CC6228" stroke="#CC6228" stroke-width="0.581081" stroke-linecap="round" stroke-linejoin="round"/>
<path d="M48.729 80.9648L49.9542 91.2179L56.6351 81.1953L48.729 80.9648Z" fill="#CC6228" stroke="#CC6228" stroke-width="0.581081" stroke-linecap="round" stroke-linejoin="round"/>
<path d="M54.7203 69.6748L40.5543 70.3276L41.8752 77.6238L43.9618 73.2269L49.0156 75.5501L54.7394 69.694L54.7203 69.6748Z" fill="#CC6228" stroke="#CC6228" stroke-width="0.581081" stroke-linecap="round" stroke-linejoin="round"/>
<path d="M24.4171 75.5116L29.4326 73.1883L31.5192 77.5852L32.8401 70.289L18.6741 69.6362L24.4171 75.4924V75.5116Z" fill="#CC6228" stroke="#CC6228" stroke-width="0.581081" stroke-linecap="round" stroke-linejoin="round"/>
<path d="M18.6741 69.675L24.6085 81.2912L24.4171 75.5119L18.6741 69.6558V69.675Z" fill="#E27525" stroke="#E27525" stroke-width="0.581081" stroke-linecap="round" stroke-linejoin="round"/>
<path d="M49.0157 75.5117L48.786 81.2911L54.7204 69.6748L48.9966 75.5309L49.0157 75.5117Z" fill="#E27525" stroke="#E27525" stroke-width="0.581081" stroke-linecap="round" stroke-linejoin="round"/>
<path d="M32.8402 70.3086L31.5193 77.6048L33.1848 86.2066L33.5485 74.8591L32.8211 70.3086H32.8402Z" fill="#E27525" stroke="#E27525" stroke-width="0.581081" stroke-linecap="round" stroke-linejoin="round"/>
<path d="M40.5543 70.3086L39.8651 74.8399L40.2097 86.2066L41.8751 77.6048L40.5543 70.3086Z" fill="#E27525" stroke="#E27525" stroke-width="0.581081" stroke-linecap="round" stroke-linejoin="round"/>
<path d="M41.8758 77.6047L40.2103 86.2065L41.3972 87.0514L48.7865 81.272L49.0162 75.4927L41.8758 77.5855V77.6047Z" fill="#F5841F" stroke="#F5841F" stroke-width="0.581081" stroke-linecap="round" stroke-linejoin="round"/>
<path d="M24.4171 75.5112L24.6085 81.2906L31.9978 87.0699L33.1847 86.2251L31.5192 77.6233L24.3979 75.5304L24.4171 75.5112Z" fill="#F5841F" stroke="#F5841F" stroke-width="0.581081" stroke-linecap="round" stroke-linejoin="round"/>
<path d="M42.0284 94.9998L42.1049 92.6381L41.4541 92.0813H31.9591L31.3465 92.6381L31.4039 94.9998L23.4404 91.2173L26.2353 93.5021L31.8825 97.3998H41.5498L47.2162 93.5021L49.9728 91.2173L42.0475 94.9998H42.0284Z" fill="#C0AC9D" stroke="#C0AC9D" stroke-width="0.581081" stroke-linecap="round" stroke-linejoin="round"/>
<path d="M41.3971 87.0509L40.2103 86.2061H33.2039L32.017 87.0509L31.347 92.619L31.9596 92.0622H41.4546L42.1054 92.619L41.4163 87.0509H41.3971Z" fill="#949494" stroke="#949494" stroke-width="0.581081" stroke-linecap="round" stroke-linejoin="round"/>
<path d="M66.7615 57.5781L68.8673 47.2866L65.6895 37.7056L41.3969 55.7348L50.7387 63.6454L63.9475 67.5047L66.8572 64.087L65.5938 63.1654L67.6038 61.3221L66.0532 60.1317L68.0633 58.5957L66.7424 57.5781H66.7615Z" fill="#763E1A" stroke="#763E1A" stroke-width="0.581081" stroke-linecap="round" stroke-linejoin="round"/>
<path d="M4.50806 47.268L6.65209 57.5595L5.29293 58.5771L7.34124 60.1132L5.79065 61.3036L7.80068 63.1468L6.53723 64.0685L9.44699 67.4861L22.6558 63.6268L31.9976 55.7163L7.70496 37.687L4.50806 47.268Z" fill="#763E1A" stroke="#763E1A" stroke-width="0.581081" stroke-linecap="round" stroke-linejoin="round"/>
<path d="M63.9474 67.5048L50.7386 63.6455L54.7204 69.6745L48.786 81.2907L56.6538 81.1947H68.3886L63.9665 67.5048H63.9474Z" fill="#F5841F" stroke="#F5841F" stroke-width="0.581081" stroke-linecap="round" stroke-linejoin="round"/>
<path d="M22.6559 63.6455L9.44711 67.5048L5.04419 81.1947H16.7598L24.6276 81.2907L18.6933 69.6745L22.675 63.6455H22.6559Z" fill="#F5841F" stroke="#F5841F" stroke-width="0.581081" stroke-linecap="round" stroke-linejoin="round"/>
<path d="M40.5551 70.3091L41.3974 55.7359L45.226 45.3677H28.1695L31.9981 55.7359L32.8404 70.3091L33.1659 74.8788V86.2071H40.2105V74.8788L40.5551 70.3091Z" fill="#F5841F" stroke="#F5841F" stroke-width="0.581081" stroke-linecap="round" stroke-linejoin="round"/>
</svg>
