<svg width="334" height="134" viewBox="0 0 334 134" fill="none" xmlns="http://www.w3.org/2000/svg">
<path d="M129.101 49.4201H112.467C111.329 49.4201 110.361 50.2215 110.183 51.3123L103.455 92.6804C103.337 93.4142 103.855 94.1013 104.611 94.2168C104.682 94.2273 104.754 94.2331 104.828 94.2331H112.769C113.908 94.2331 114.876 93.4293 115.053 92.3386L116.868 81.1806C117.044 80.091 118.012 79.2873 119.15 79.2861H124.416C135.374 79.2861 141.697 74.144 143.349 63.953C144.093 59.4944 143.38 55.9913 141.228 53.538C138.863 50.8445 134.67 49.4189 129.103 49.4189L129.101 49.4201ZM131.02 64.5293C130.11 70.3177 125.549 70.3177 121.139 70.3177H118.629L120.39 59.5073C120.497 58.854 121.077 58.3722 121.759 58.3722H122.909C125.912 58.3722 128.746 58.3722 130.21 60.0334C131.083 61.0238 131.35 62.496 131.017 64.5293H131.02ZM178.824 64.3426H170.859C170.177 64.3426 169.596 64.8244 169.49 65.4777L169.138 67.6381L168.581 66.8554C166.856 64.4278 163.01 63.617 159.172 63.617C150.37 63.617 142.851 70.0832 141.387 79.1531C140.626 83.677 141.708 88.0037 144.354 91.0204C146.782 93.7945 150.255 94.9505 154.387 94.9505C161.48 94.9505 165.412 90.5281 165.412 90.5281L165.058 92.6746C164.936 93.4083 165.452 94.0978 166.208 94.2144C166.28 94.2261 166.352 94.2308 166.424 94.2308H173.599C174.738 94.2308 175.706 93.427 175.883 92.3363L180.188 65.8953C180.31 65.165 179.796 64.4768 179.043 64.3601C178.971 64.3484 178.898 64.3426 178.824 64.3426ZM167.721 79.3783C166.952 83.7913 163.34 86.7543 158.733 86.7543C156.42 86.7543 154.571 86.0346 153.384 84.6709C152.206 83.3165 151.759 81.3894 152.134 79.2429C152.852 74.8672 156.525 71.8074 161.061 71.8074C163.323 71.8074 165.161 72.5364 166.372 73.9118C167.586 75.3012 168.067 77.24 167.72 79.3771L167.721 79.3783ZM221.248 64.3426H213.244C212.477 64.3438 211.76 64.7124 211.33 65.326L200.29 81.0978L195.61 65.9419C195.315 64.9924 194.414 64.3426 193.392 64.3426H185.525C184.759 64.3403 184.137 64.941 184.135 65.6841C184.135 65.8335 184.16 65.9804 184.209 66.1216L193.026 91.2152L184.737 102.563C184.294 103.169 184.44 104.009 185.065 104.438C185.299 104.6 185.581 104.687 185.868 104.687H193.863C194.621 104.687 195.331 104.328 195.763 103.724L222.386 66.4529C222.823 65.8428 222.667 65.0052 222.038 64.5817C221.805 64.4254 221.53 64.3414 221.247 64.3414L221.248 64.3426Z" fill="#253B80"/>
<path d="M247.751 49.4198H231.114C229.978 49.4198 229.009 50.2224 228.833 51.312L222.105 92.6801C221.986 93.4127 222.501 94.0998 223.255 94.2153C223.327 94.2258 223.399 94.2316 223.471 94.2316H232.009C232.805 94.2316 233.481 93.6682 233.605 92.9064L235.514 81.1803C235.69 80.0907 236.658 79.287 237.796 79.2858H243.06C254.02 79.2858 260.341 74.1437 261.995 63.9527C262.742 59.4941 262.024 55.991 259.872 53.5377C257.511 50.8442 253.319 49.4186 247.752 49.4186L247.751 49.4198ZM249.669 64.529C248.762 70.3174 244.201 70.3174 239.789 70.3174H237.281L239.045 59.507C239.149 58.8537 239.729 58.3719 240.411 58.3719H241.561C244.562 58.3719 247.398 58.3719 248.862 60.0331C249.736 61.0235 250 62.4957 249.667 64.529H249.669ZM297.472 64.3423H289.511C288.829 64.34 288.248 64.8229 288.145 65.4774L287.792 67.6378L287.233 66.8551C285.508 64.4275 281.665 63.6167 277.827 63.6167C269.024 63.6167 261.509 70.0829 260.044 79.1528C259.285 83.6767 260.363 88.0034 263.009 91.0201C265.441 93.7942 268.91 94.9502 273.042 94.9502C280.135 94.9502 284.067 90.5278 284.067 90.5278L283.712 92.6743C283.591 93.4081 284.107 94.0975 284.862 94.2141C284.935 94.2258 285.01 94.2316 285.083 94.2305H292.256C293.394 94.2305 294.361 93.4267 294.538 92.336L298.845 65.895C298.962 65.1601 298.442 64.4718 297.684 64.3586C297.613 64.3481 297.542 64.3423 297.472 64.3435V64.3423ZM286.368 79.378C285.604 83.791 281.987 86.7541 277.38 86.7541C275.072 86.7541 273.219 86.0343 272.031 84.6706C270.854 83.3162 270.411 81.3891 270.782 79.2426C271.505 74.8669 275.172 71.8071 279.708 71.8071C281.97 71.8071 283.808 72.5362 285.02 73.9115C286.238 75.3009 286.719 77.2397 286.367 79.3768L286.368 79.378ZM306.862 50.5549L300.035 92.6801C299.916 93.4127 300.431 94.0998 301.185 94.2153C301.257 94.2258 301.329 94.2316 301.401 94.2316H308.265C309.405 94.2316 310.373 93.429 310.549 92.3372L317.281 50.9713C317.4 50.2376 316.884 49.5493 316.128 49.4338C316.057 49.4233 315.986 49.4175 315.914 49.4175H308.227C307.545 49.4198 306.967 49.9016 306.861 50.5549H306.862Z" fill="#179BD7"/>
<path d="M34.375 102.272L35.6476 94.4348L32.8137 94.3706H19.283L28.6856 36.5483C28.7433 36.1832 29.0681 35.9137 29.4494 35.916H52.2649C59.8392 35.916 65.0656 37.4442 67.7948 40.4621C69.0746 41.8771 69.889 43.3563 70.2835 44.9836C70.6973 46.6914 70.7045 48.7317 70.3003 51.2212L70.2715 51.4031V52.9978L71.5513 53.7012C72.528 54.1807 73.4061 54.8305 74.1422 55.6167C75.2368 56.8264 75.9441 58.3651 76.2436 60.1884C76.5527 62.0642 76.4505 64.2958 75.9441 66.8214C75.3607 69.7273 74.4165 72.2587 73.1427 74.3293C72.018 76.1853 70.506 77.7916 68.7042 79.0469C67.0118 80.2122 64.9994 81.0965 62.726 81.6634C60.5224 82.2199 58.0097 82.501 55.254 82.501H53.4786C52.2084 82.501 50.9755 82.9443 50.0072 83.7399C49.0401 84.5436 48.399 85.653 48.1981 86.8721L48.0646 87.5778L45.8177 101.39L45.7154 101.897C45.689 102.058 45.6421 102.138 45.5747 102.192C45.5085 102.245 45.4267 102.274 45.3413 102.275H34.3786L34.375 102.272Z" fill="#253B80"/>
<path d="M72.7613 51.5864C72.6927 52.0087 72.6158 52.4403 72.5279 52.8836C69.5196 67.8656 59.2257 73.0404 46.0786 73.0404H39.3848C37.7766 73.0404 36.4222 74.1732 36.172 75.7107L32.7451 96.7902L31.7744 102.765C31.6265 103.672 32.264 104.522 33.1986 104.666C33.2864 104.68 33.3754 104.685 33.4656 104.685H45.3377C46.7438 104.685 47.9382 103.695 48.1596 102.35L48.2762 101.766L50.5111 88.0084L50.6543 87.2537C50.8732 85.904 52.07 84.9136 53.4761 84.9136H55.2515C66.7543 84.9136 75.7588 80.385 78.3906 67.2788C79.49 61.8042 78.9211 57.2325 76.0114 54.0175C75.0888 53.0224 73.9882 52.2 72.7613 51.5876V51.5864Z" fill="#179BD7"/>
<path d="M69.6146 50.3682C68.6535 50.0987 67.6768 49.8887 66.688 49.7383C64.7358 49.4478 62.762 49.3078 60.7869 49.3206H42.9042C41.4981 49.3206 40.3013 50.3134 40.0848 51.6607L36.2802 75.0279L36.1707 75.7091C36.4161 74.1716 37.7801 73.0377 39.3835 73.0389H46.0773C59.2244 73.0389 69.5171 67.8606 72.5266 52.8821C72.6168 52.4388 72.6926 52.0072 72.76 51.5849C71.9661 51.1813 71.1386 50.843 70.2857 50.5735C70.062 50.5012 69.8383 50.4335 69.6121 50.3682H69.6146Z" fill="#737373"/>
<path d="M40.0848 51.6608C40.2989 50.3123 41.497 49.3184 42.9043 49.3231H60.7869C62.9052 49.3231 64.8826 49.4572 66.6881 49.7407C67.909 49.9273 69.1142 50.205 70.2906 50.5736C71.1783 50.8594 72.0035 51.1966 72.7649 51.585C73.6598 46.0486 72.7576 42.2794 69.6711 38.8661C66.2659 35.1087 60.1242 33.5 52.266 33.5H29.4505C27.8447 33.5 26.4759 34.6327 26.2281 36.1726L16.7244 94.591C16.5548 95.6281 17.2849 96.6021 18.3543 96.7666C18.4553 96.7818 18.5563 96.79 18.6586 96.79H32.7439L36.2802 75.0292L40.0848 51.662V51.6608Z" fill="#253B80"/>
</svg>
