<svg width="74" height="74" viewBox="0 0 74 74" fill="none" xmlns="http://www.w3.org/2000/svg">
<g opacity="0.5">
<path d="M54.0508 23.9573C53.8349 23.9265 53.6191 23.9265 53.4033 23.9573C48.6241 23.8032 44.8316 19.8873 44.8316 15.0773C44.8316 10.1748 48.8091 6.1665 53.7424 6.1665C58.6449 6.1665 62.6533 10.144 62.6533 15.0773C62.6224 19.8873 58.8299 23.8032 54.0508 23.9573Z" fill="#FF5400"/>
<path d="M64.1024 45.3248C60.6491 47.6373 55.8082 48.5006 51.3374 47.9148C52.5091 45.3864 53.1257 42.5806 53.1566 39.6206C53.1566 36.5373 52.4782 33.6081 51.1832 31.0489C55.7466 30.4323 60.5874 31.2956 64.0716 33.6081C68.9432 36.8148 68.9432 42.0873 64.1024 45.3248Z" fill="#FF5400"/>
<path d="M19.8566 23.9573C20.0724 23.9265 20.2882 23.9265 20.5041 23.9573C25.2832 23.8032 29.0757 19.8873 29.0757 15.0773C29.0757 10.144 25.0982 6.1665 20.1649 6.1665C15.2624 6.1665 11.2849 10.144 11.2849 15.0773C11.2849 19.8873 15.0774 23.8032 19.8566 23.9573Z" fill="#FF5400"/>
<path d="M20.1958 39.6212C20.1958 42.612 20.8433 45.4487 22.015 48.0079C17.6675 48.4704 13.135 47.5454 9.805 45.3562C4.93333 42.1187 4.93333 36.8462 9.805 33.6087C13.1042 31.3887 17.76 30.4945 22.1383 30.9879C20.8742 33.5779 20.1958 36.507 20.1958 39.6212Z" fill="#FF5400"/>
<path d="M37.37 48.9325C37.1233 48.9017 36.8458 48.9017 36.5683 48.9325C30.895 48.7475 26.3625 44.0917 26.3625 38.3567C26.3933 32.4983 31.1108 27.75 37 27.75C42.8583 27.75 47.6067 32.4983 47.6067 38.3567C47.5758 44.0917 43.0742 48.7475 37.37 48.9325Z" fill="#FF5400"/>
<path d="M27.3491 55.3156C22.6933 58.4298 22.6933 63.5481 27.3491 66.6315C32.6524 70.1773 41.3474 70.1773 46.6508 66.6315C51.3066 63.5173 51.3066 58.399 46.6508 55.3156C41.3783 51.7698 32.6833 51.7698 27.3491 55.3156Z" fill="#FF5400"/>
</g>
</svg>
