<svg width="75" height="74" viewBox="0 0 75 74" fill="none" xmlns="http://www.w3.org/2000/svg">
<g opacity="0.5">
<path d="M50.4192 6.1665H24.5809C13.3575 6.1665 6.66669 12.8573 6.66669 24.0807V49.8882C6.66669 61.1423 13.3575 67.8332 24.5809 67.8332H50.3884C61.6117 67.8332 68.3025 61.1423 68.3025 49.919V24.0807C68.3334 12.8573 61.6425 6.1665 50.4192 6.1665ZM26.6159 33.8548C27.51 32.9607 28.99 32.9607 29.8842 33.8548L35.1875 39.1582V20.0723C35.1875 18.8082 36.2359 17.7598 37.5 17.7598C38.7642 17.7598 39.8125 18.8082 39.8125 20.0723V39.1582L45.1159 33.8548C46.01 32.9607 47.49 32.9607 48.3842 33.8548C49.2784 34.749 49.2784 36.229 48.3842 37.1232L39.1342 46.3732C38.9184 46.589 38.6717 46.7432 38.3942 46.8665C38.1167 46.9898 37.8084 47.0515 37.5 47.0515C37.1917 47.0515 36.9142 46.9898 36.6059 46.8665C36.3284 46.7432 36.0817 46.589 35.8659 46.3732L26.6159 37.1232C25.7217 36.229 25.7217 34.7798 26.6159 33.8548ZM56.74 53.0948C50.5425 55.1607 44.0367 56.209 37.5 56.209C30.9634 56.209 24.4575 55.1607 18.26 53.0948C17.0575 52.694 16.41 51.3682 16.8109 50.1657C17.2117 48.9632 18.5067 48.2848 19.74 48.7165C31.21 52.5398 43.8209 52.5398 55.2909 48.7165C56.4934 48.3157 57.8192 48.9632 58.22 50.1657C58.59 51.399 57.9425 52.694 56.74 53.0948Z" fill="#FF5400"/>
</g>
</svg>
