<svg width="74" height="74" viewBox="0 0 74 74" fill="none" xmlns="http://www.w3.org/2000/svg">
<g opacity="0.5">
<path d="M49.9191 6.1665H24.0808C12.8575 6.1665 6.16663 12.8573 6.16663 24.0807V49.8882C6.16663 61.1423 12.8575 67.8332 24.0808 67.8332H49.8883C61.1116 67.8332 67.8025 61.1423 67.8025 49.919V24.0807C67.8333 12.8573 61.1425 6.1665 49.9191 6.1665ZM26.1158 27.6882L35.3658 18.4382C35.5816 18.2223 35.8283 18.0682 36.1058 17.9448C36.6608 17.6982 37.3083 17.6982 37.8633 17.9448C38.1408 18.0682 38.3875 18.2223 38.6033 18.4382L47.8533 27.6882C48.7475 28.5823 48.7475 30.0623 47.8533 30.9565C47.3908 31.419 46.805 31.6348 46.2191 31.6348C45.6333 31.6348 45.0475 31.419 44.585 30.9565L39.2816 25.6532V44.739C39.2816 46.0032 38.2333 47.0515 36.9691 47.0515C35.705 47.0515 34.6566 46.0032 34.6566 44.739V25.6532L29.3533 30.9565C28.4591 31.8507 26.9791 31.8507 26.085 30.9565C25.1908 30.0623 25.2216 28.6132 26.1158 27.6882ZM56.24 53.0948C50.0425 55.1607 43.5366 56.209 37 56.209C30.4633 56.209 23.9575 55.1607 17.76 53.0948C16.5575 52.694 15.91 51.3682 16.3108 50.1657C16.7116 48.9632 18.0375 48.2848 19.24 48.7165C30.71 52.5398 43.3208 52.5398 54.7908 48.7165C55.9933 48.3157 57.3191 48.9632 57.72 50.1657C58.09 51.399 57.4425 52.694 56.24 53.0948Z" fill="#FF5400"/>
</g>
</svg>
