<svg width="74" height="74" viewBox="0 0 74 74" fill="none" xmlns="http://www.w3.org/2000/svg">
<g opacity="0.5">
<path d="M62.9309 21.4599V27.1024C62.9309 29.0758 62.0059 30.9258 60.4025 32.0666L26.4859 56.9183C24.2967 58.5216 21.3059 58.5216 19.1475 56.8874L14.7075 53.5574C12.7034 52.0466 11.0692 48.7783 11.0692 46.2808V21.4599C11.0692 18.0066 13.7209 14.1833 16.9584 12.9808L33.8242 6.65994C35.5817 6.01244 38.4184 6.01244 40.1759 6.65994L57.0417 12.9808C60.2792 14.1833 62.9309 18.0066 62.9309 21.4599Z" fill="#FF5400"/>
<path d="M58.0284 38.0486C60.0634 36.5686 62.9309 38.0177 62.9309 40.5461V46.3427C62.9309 48.8402 61.2967 52.0777 59.2925 53.5886L42.4267 66.1994C40.9467 67.2786 38.9734 67.8336 37 67.8336C35.0267 67.8336 33.0534 67.2786 31.5734 66.1686L29.0142 64.2569C27.3492 63.0236 27.3492 60.5261 29.045 59.2927L58.0284 38.0486Z" fill="#FF5400"/>
</g>
</svg>
