<svg width="334" height="134" viewBox="0 0 334 134" fill="none" xmlns="http://www.w3.org/2000/svg">
<path d="M255.027 4.22502L206.269 4.2124H206.256C206.218 4.2124 206.181 4.21871 206.145 4.21871C199.447 4.42301 191.104 9.77329 189.585 16.3706L166.527 117.979C165.007 124.638 169.14 130.056 175.79 130.156H227.012C233.559 129.833 239.923 124.544 241.416 118.022L264.475 16.4124C266.019 9.68652 261.787 4.22423 255.026 4.22423" fill="#01798A"/>
<path d="M166.527 117.979L189.585 16.3703C191.104 9.77291 199.447 4.42263 206.145 4.21834L186.758 4.20651L151.831 4.2002C145.114 4.33665 136.663 9.7248 135.144 16.3718L112.08 117.98C110.554 124.639 114.694 130.057 121.339 130.156H175.79C169.141 130.057 165.008 124.639 166.528 117.98" fill="#024381"/>
<path d="M112.08 117.979L135.145 16.3702C136.664 9.72393 145.115 4.33579 151.831 4.19854L107.087 4.1875C100.333 4.1875 91.6726 9.63717 90.1289 16.3702L67.0643 117.979C66.9242 118.599 66.8457 119.207 66.7998 119.801V121.685C67.2513 126.54 70.9738 130.074 76.3239 130.155H121.34C114.694 130.057 110.555 124.639 112.08 117.979Z" fill="#DD0228"/>
<path d="M152.774 78.2378H153.621C154.399 78.2378 154.922 77.9767 155.168 77.4624L157.368 74.1834H163.26L162.032 76.34H169.096L168.2 79.6449H159.793C158.825 81.0955 157.633 81.777 156.201 81.6966H151.822L152.774 78.2378M151.806 82.9736H167.285L166.298 86.5641H160.073L159.123 90.0292H165.181L164.195 93.6197H158.137L156.73 98.7405C156.381 99.5963 156.84 99.9812 158.097 99.8945H163.034L162.119 103.231H152.641C150.844 103.231 150.227 102.207 150.791 100.156L152.591 93.6213H148.719L149.703 90.0308H153.575L154.525 86.5657H150.824L151.807 82.9752L151.806 82.9736ZM176.511 74.1574L176.268 76.2595C176.268 76.2595 179.188 74.077 181.839 74.077H191.638L187.89 87.5864C187.579 89.1308 186.247 89.8983 183.893 89.8983H172.787L170.186 99.3841C170.035 99.8929 170.247 100.153 170.807 100.153H172.993L172.19 103.098H166.635C164.503 103.098 163.616 102.459 163.967 101.175L171.319 74.1566H176.512L176.511 74.1574ZM184.809 77.9767H176.063L175.017 81.6224C175.017 81.6224 176.473 80.5757 178.908 80.5378C181.336 80.5 184.106 80.5378 184.106 80.5378L184.809 77.9767ZM181.64 86.4332C182.286 86.5207 182.649 86.2659 182.692 85.6641L183.227 83.7426H174.468L173.734 86.4324H181.64V86.4332ZM175.732 90.7983H180.781L180.687 92.9745H182.031C182.711 92.9745 183.047 92.7576 183.047 92.3301L183.446 90.9229H187.643L187.083 92.9753C186.608 94.6862 185.352 95.579 183.309 95.6666H180.62L180.607 99.3857C180.558 99.982 181.098 100.285 182.212 100.285H184.74L183.924 103.23H177.86C176.161 103.311 175.327 102.505 175.345 100.793L175.732 90.7983ZM114.55 56.1599C113.865 59.5019 112.277 62.0686 109.815 63.8907C107.375 65.6828 104.228 66.5812 100.374 66.5812C96.7473 66.5812 94.0892 65.6638 92.3927 63.8228C91.2157 62.515 90.6312 60.8531 90.6312 58.8449C90.6312 58.0143 90.731 57.1214 90.9298 56.1606L95.0357 36.4459H101.236L97.1868 55.9366C97.0712 56.4265 97.015 56.9281 97.0189 57.4306C97.0126 58.4292 97.2613 59.2471 97.765 59.886C98.4992 60.8349 99.6912 61.3051 101.351 61.3051C103.259 61.3051 104.831 60.8405 106.051 59.9034C107.272 58.9734 108.068 57.653 108.426 55.9358L112.488 36.4443H118.657L114.548 56.1606M140.588 48.4046H145.444L141.64 65.9999H136.794L140.588 48.4046ZM142.117 41.9942H147.016L146.101 46.2654H141.202L142.117 41.9942ZM149.743 64.6605C148.473 63.4513 147.831 61.8209 147.826 59.7504C147.826 59.397 147.847 58.9939 147.895 58.5538C147.941 58.1073 148.001 57.6735 148.084 57.2704C148.66 54.4119 149.887 52.1434 151.776 50.4688C153.662 48.7887 155.938 47.9455 158.602 47.9455C160.784 47.9455 162.515 48.5537 163.782 49.7676C165.048 50.9894 165.683 52.638 165.683 54.7337C165.683 55.0926 165.655 55.5083 165.608 55.9548C165.554 56.3949 165.486 56.8335 165.406 57.2697C164.843 60.0848 163.62 62.3289 161.731 63.9719C159.842 65.6268 157.573 66.451 154.927 66.451C152.736 66.451 151.011 65.8563 149.744 64.6597M158.998 61.1757C159.854 60.252 160.467 58.8504 160.841 56.9849C160.897 56.6931 160.947 56.3894 160.978 56.0857C161.009 55.7883 161.022 55.5091 161.022 55.2551C161.022 54.1698 160.745 53.3273 160.188 52.7318C159.634 52.1308 158.847 51.8326 157.829 51.8326C156.484 51.8326 155.388 52.3027 154.53 53.2461C153.664 54.1887 153.05 55.6148 152.664 57.5118C152.611 57.8037 152.568 58.0947 152.527 58.3803C152.496 58.6721 152.487 58.9442 152.493 59.1927C152.493 60.2717 152.77 61.1023 153.327 61.6916C153.882 62.2808 154.665 62.5718 155.696 62.5718C157.047 62.5718 158.143 62.1057 158.999 61.1765" fill="#B6B6B6"/>
<path d="M197.192 78.3867L198.362 74.2826H204.283L204.028 75.7892C204.028 75.7892 207.052 74.2826 209.231 74.2826H216.552L215.389 78.3867H214.237L208.715 97.7433H209.866L208.771 101.587H207.62L207.14 103.254H201.407L201.885 101.587H190.574L191.677 97.7433H192.81L198.338 78.3867H197.192M203.58 78.3867L202.074 83.6249C202.074 83.6249 204.652 82.639 206.874 82.3605C207.364 80.5321 208.006 78.3867 208.006 78.3867H203.58ZM201.376 86.0812L199.864 91.5687C199.864 91.5687 202.721 90.1671 204.682 90.0495C205.248 87.9285 205.815 86.082 205.815 86.082H201.377L201.376 86.0812ZM202.483 97.7433L203.616 93.7623H199.197L198.057 97.7433H202.483ZM216.801 74.0287H222.368L222.605 76.074C222.567 76.5946 222.879 76.843 223.538 76.843H224.522L223.527 80.3081H219.437C217.875 80.3886 217.072 79.7938 216.997 78.5105L216.802 74.0287H216.801ZM215.171 81.4629H233.199L232.141 85.1836H226.401L225.416 88.6424H231.151L230.086 92.3559H223.7L222.255 94.533H225.382L226.104 98.891C226.189 99.3248 226.576 99.5354 227.236 99.5354H228.207L227.187 103.124H223.75C221.969 103.212 221.049 102.616 220.973 101.333L220.145 97.352L217.3 101.587C216.628 102.784 215.594 103.341 214.2 103.254H208.952L209.972 99.664H211.61C212.282 99.664 212.842 99.3674 213.346 98.7647L217.799 92.3543H212.059L213.123 88.6408H219.348L220.338 85.182H214.107L215.171 81.4613M120.262 48.3973H124.642L124.141 50.9388L124.77 50.2131C126.19 48.7002 127.914 47.9501 129.949 47.9501C131.792 47.9501 133.121 48.4833 133.956 49.556C134.777 50.6288 135.002 52.1109 134.612 54.0134L132.199 66.0036H127.698L129.876 55.1358C130.1 54.0134 130.038 53.1765 129.692 52.637C129.351 52.0975 128.696 51.8317 127.753 51.8317C126.595 51.8317 125.621 52.1905 124.827 52.9044C124.03 53.6238 123.504 54.6223 123.245 55.8923L121.237 66.0044H116.727L120.261 48.3973M170.483 48.3973H174.867L174.369 50.9388L174.99 50.2131C176.41 48.7002 178.141 47.9501 180.17 47.9501C182.013 47.9501 183.344 48.4833 184.172 49.556C184.989 50.6288 185.224 52.1109 184.827 54.0134L182.423 66.0036H177.916L180.096 55.1358C180.32 54.0134 180.257 53.1765 179.914 52.637C179.56 52.0975 178.918 51.8317 177.979 51.8317C176.82 51.8317 175.85 52.1905 175.047 52.9044C174.25 53.6238 173.721 54.6223 173.472 55.8923L171.455 66.0044H166.951L170.483 48.3973ZM192.148 37.4854H204.873C207.319 37.4854 209.211 38.0375 210.512 39.1213C211.807 40.22 212.455 41.7937 212.455 43.8461V43.9084C212.455 44.2988 212.429 44.739 212.391 45.2162C212.327 45.7005 212.244 46.1824 212.143 46.6612C211.582 49.3762 210.282 51.5595 208.271 53.2144C206.253 54.8637 203.864 55.6943 201.112 55.6943H194.288L192.178 66.0044H186.27L192.148 37.4854ZM195.328 50.7352H200.987C202.462 50.7352 203.632 50.3937 204.487 49.7185C205.334 49.0362 205.894 47.995 206.204 46.5815C206.254 46.3205 206.285 46.0854 206.323 45.8685C206.342 45.6642 206.367 45.4591 206.367 45.2611C206.367 44.2499 206.006 43.5187 205.283 43.0596C204.561 42.5935 203.428 42.3718 201.86 42.3718H197.054L195.329 50.736M238.9 69.4096C237.031 73.3645 235.252 75.6701 234.206 76.7428C233.16 77.8038 231.086 80.2711 226.094 80.0849L226.524 77.0662C230.726 75.7766 232.998 69.9665 234.293 67.3942L232.749 48.4478L235.999 48.4044H238.725L239.019 60.2897L244.129 48.4044H249.303L238.9 69.4096ZM224.433 49.836L222.377 51.2432C220.23 49.5694 218.269 48.5338 214.485 50.2825C209.33 52.663 205.022 70.9225 219.216 64.908L220.025 65.8632L225.61 66.006L229.277 49.4148L224.433 49.836ZM221.257 58.9062C220.36 61.5415 218.356 63.2831 216.787 62.787C215.218 62.3035 214.657 59.7612 215.567 57.1204C216.464 54.4788 218.481 52.7435 220.037 53.2396C221.606 53.7231 222.171 56.2654 221.257 58.9062Z" fill="#B6B6B6"/>
</svg>
